<?xml version="1.0" encoding="UTF-8" standalone="no"?>
<!DOCTYPE svg PUBLIC "-//W3C//DTD SVG 1.1//EN"
 "http://www.w3.org/Graphics/SVG/1.1/DTD/svg11.dtd">
<!-- Generated by graphviz version 9.0.0 (0)
 -->
<!-- Pages: 1 -->
<svg width="465pt" height="609pt"
 viewBox="0.00 0.00 464.50 609.25" xmlns="http://www.w3.org/2000/svg" xmlns:xlink="http://www.w3.org/1999/xlink">
<g id="graph0" class="graph" transform="scale(1 1) rotate(0) translate(4 605.25)">
<polygon fill="white" stroke="none" points="-4,4 -4,-605.25 460.5,-605.25 460.5,4 -4,4"/>
<text text-anchor="middle" x="228.25" y="-583.95" font-family="Times,serif" font-size="14.00">trento application</text>
<!-- Trento.Application -->
<g id="node1" class="node">
<title>Trento.Application</title>
<polygon fill="none" stroke="black" points="148,-252 0,-252 0,-216 148,-216 148,-252"/>
<text text-anchor="middle" x="74" y="-229.32" font-family="Times,serif" font-size="14.00">Trento.Application</text>
</g>
<!-- Trento.Commanded -->
<g id="node3" class="node">
<title>Trento.Commanded</title>
<polygon fill="none" stroke="black" points="398.75,-90 241.75,-90 241.75,-54 398.75,-54 398.75,-90"/>
<text text-anchor="middle" x="320.25" y="-67.33" font-family="Times,serif" font-size="14.00">Trento.Commanded</text>
</g>
<!-- Trento.Application&#45;&gt;Trento.Commanded -->
<g id="edge1" class="edge">
<title>Trento.Application&#45;&gt;Trento.Commanded</title>
<path fill="none" stroke="black" d="M84.24,-215.75C100.25,-186.13 136.07,-128.01 184,-99 197.98,-90.54 214.12,-84.67 230.27,-80.61"/>
<polygon fill="black" stroke="black" points="230.98,-84.04 239.96,-78.42 229.43,-77.21 230.98,-84.04"/>
</g>
<!-- Trento.EventHandlersSupervisor -->
<g id="node4" class="node">
<title>Trento.EventHandlersSupervisor</title>
<polygon fill="none" stroke="black" points="446.75,-36 193.75,-36 193.75,0 446.75,0 446.75,-36"/>
<text text-anchor="middle" x="320.25" y="-13.32" font-family="Times,serif" font-size="14.00">Trento.EventHandlersSupervisor</text>
</g>
<!-- Trento.Application&#45;&gt;Trento.EventHandlersSupervisor -->
<g id="edge2" class="edge">
<title>Trento.Application&#45;&gt;Trento.EventHandlersSupervisor</title>
<path fill="none" stroke="black" d="M79.95,-215.73C91.34,-177.42 123.22,-88.61 184,-45 185.4,-44 186.82,-43.03 188.28,-42.09"/>
<polygon fill="black" stroke="black" points="189.95,-45.17 196.89,-37.16 186.47,-39.1 189.95,-45.17"/>
</g>
<!-- Trento.Infrastructure -->
<g id="node6" class="node">
<title>Trento.Infrastructure</title>
<polygon fill="none" stroke="black" points="404.75,-414 235.75,-414 235.75,-378 404.75,-378 404.75,-414"/>
<text text-anchor="middle" x="320.25" y="-391.32" font-family="Times,serif" font-size="14.00">Trento.Infrastructure</text>
</g>
<!-- Trento.Application&#45;&gt;Trento.Infrastructure -->
<g id="edge3" class="edge">
<title>Trento.Application&#45;&gt;Trento.Infrastructure</title>
<path fill="none" stroke="black" d="M84.24,-252.25C100.25,-281.87 136.07,-339.99 184,-369 196.32,-376.46 210.33,-381.9 224.54,-385.87"/>
<polygon fill="black" stroke="black" points="223.4,-389.19 233.95,-388.25 225.11,-382.41 223.4,-389.19"/>
</g>
<!-- Trento.ProcessManagersSupervisor -->
<g id="node7" class="node">
<title>Trento.ProcessManagersSupervisor</title>
<polygon fill="none" stroke="black" points="456.5,-360 184,-360 184,-324 456.5,-324 456.5,-360"/>
<text text-anchor="middle" x="320.25" y="-337.32" font-family="Times,serif" font-size="14.00">Trento.ProcessManagersSupervisor</text>
</g>
<!-- Trento.Application&#45;&gt;Trento.ProcessManagersSupervisor -->
<g id="edge4" class="edge">
<title>Trento.Application&#45;&gt;Trento.ProcessManagersSupervisor</title>
<path fill="none" stroke="black" d="M94.18,-252.47C114.72,-271.18 149.1,-299.49 184,-315 187.84,-316.7 191.78,-318.3 195.8,-319.8"/>
<polygon fill="black" stroke="black" points="194.58,-323.08 205.17,-323.04 196.86,-316.46 194.58,-323.08"/>
</g>
<!-- Trento.ProjectorsSupervisor -->
<g id="node8" class="node">
<title>Trento.ProjectorsSupervisor</title>
<polygon fill="none" stroke="black" points="429.88,-306 210.62,-306 210.62,-270 429.88,-270 429.88,-306"/>
<text text-anchor="middle" x="320.25" y="-283.32" font-family="Times,serif" font-size="14.00">Trento.ProjectorsSupervisor</text>
</g>
<!-- Trento.Application&#45;&gt;Trento.ProjectorsSupervisor -->
<g id="edge5" class="edge">
<title>Trento.Application&#45;&gt;Trento.ProjectorsSupervisor</title>
<path fill="none" stroke="black" d="M147.59,-252.47C159.73,-255.42 172.2,-258.36 184,-261 193.34,-263.09 203.06,-265.18 212.81,-267.23"/>
<polygon fill="black" stroke="black" points="211.83,-270.6 222.33,-269.21 213.25,-263.75 211.83,-270.6"/>
</g>
<!-- Trento.Repo -->
<g id="node9" class="node">
<title>Trento.Repo</title>
<polygon fill="none" stroke="black" points="372.12,-468 268.38,-468 268.38,-432 372.12,-432 372.12,-468"/>
<text text-anchor="middle" x="320.25" y="-445.32" font-family="Times,serif" font-size="14.00">Trento.Repo</text>
</g>
<!-- Trento.Application&#45;&gt;Trento.Repo -->
<g id="edge6" class="edge">
<title>Trento.Application&#45;&gt;Trento.Repo</title>
<path fill="none" stroke="black" d="M79.95,-252.27C91.34,-290.58 123.22,-379.39 184,-423 204.91,-438 232.1,-445.17 256.62,-448.43"/>
<polygon fill="black" stroke="black" points="256.19,-451.9 266.52,-449.53 256.97,-444.95 256.19,-451.9"/>
</g>
<!-- Trento.Scheduler -->
<g id="node11" class="node">
<title>Trento.Scheduler</title>
<polygon fill="none" stroke="black" points="390.12,-252 250.38,-252 250.38,-216 390.12,-216 390.12,-252"/>
<text text-anchor="middle" x="320.25" y="-229.32" font-family="Times,serif" font-size="14.00">Trento.Scheduler</text>
</g>
<!-- Trento.Application&#45;&gt;Trento.Scheduler -->
<g id="edge7" class="edge">
<title>Trento.Application&#45;&gt;Trento.Scheduler</title>
<path fill="none" stroke="black" d="M148.28,-234C176.81,-234 209.6,-234 238.79,-234"/>
<polygon fill="black" stroke="black" points="238.69,-237.5 248.69,-234 238.69,-230.5 238.69,-237.5"/>
</g>
<!-- Trento.Vault -->
<g id="node12" class="node">
<title>Trento.Vault</title>
<polygon fill="none" stroke="black" points="372.5,-198 268,-198 268,-162 372.5,-162 372.5,-198"/>
<text text-anchor="middle" x="320.25" y="-175.32" font-family="Times,serif" font-size="14.00">Trento.Vault</text>
</g>
<!-- Trento.Application&#45;&gt;Trento.Vault -->
<g id="edge8" class="edge">
<title>Trento.Application&#45;&gt;Trento.Vault</title>
<path fill="none" stroke="black" d="M147.59,-215.53C159.73,-212.58 172.2,-209.64 184,-207 207.59,-201.73 233.6,-196.41 256.46,-191.91"/>
<polygon fill="black" stroke="black" points="257.13,-195.35 266.27,-190 255.78,-188.48 257.13,-195.35"/>
</g>
<!-- TrentoWeb -->
<g id="node13" class="node">
<title>TrentoWeb</title>
<polygon fill="none" stroke="black" points="367.25,-144 273.25,-144 273.25,-108 367.25,-108 367.25,-144"/>
<text text-anchor="middle" x="320.25" y="-121.33" font-family="Times,serif" font-size="14.00">TrentoWeb</text>
</g>
<!-- Trento.Application&#45;&gt;TrentoWeb -->
<g id="edge9" class="edge">
<title>Trento.Application&#45;&gt;TrentoWeb</title>
<path fill="none" stroke="black" d="M94.18,-215.53C114.72,-196.82 149.1,-168.51 184,-153 208.27,-142.22 236.91,-135.71 261.56,-131.8"/>
<polygon fill="black" stroke="black" points="262.06,-135.26 271.45,-130.35 261.05,-128.33 262.06,-135.26"/>
</g>
<!-- Trento.Clusters -->
<g id="node2" class="node">
<title>Trento.Clusters</title>
<polygon fill="none" stroke="black" points="137.88,-495 10.12,-495 10.12,-459 137.88,-459 137.88,-495"/>
<text text-anchor="middle" x="74" y="-472.32" font-family="Times,serif" font-size="14.00">Trento.Clusters</text>
</g>
<!-- Trento.Clusters&#45;&gt;Trento.Clusters -->
<g id="edge10" class="edge">
<title>Trento.Clusters&#45;&gt;Trento.Clusters</title>
<path fill="none" stroke="black" d="M29.45,-495.15C22.6,-504.54 37.45,-513 74,-513 94.85,-513 108.63,-510.25 115.36,-506.14"/>
<polygon fill="black" stroke="black" points="118.7,-507.19 118.13,-496.61 111.98,-505.24 118.7,-507.19"/>
</g>
<!-- Trento.Hosts -->
<g id="node5" class="node">
<title>Trento.Hosts</title>
<polygon fill="none" stroke="black" points="374.75,-522 265.75,-522 265.75,-486 374.75,-486 374.75,-522"/>
<text text-anchor="middle" x="320.25" y="-499.32" font-family="Times,serif" font-size="14.00">Trento.Hosts</text>
</g>
<!-- Trento.Clusters&#45;&gt;Trento.Hosts -->
<g id="edge11" class="edge">
<title>Trento.Clusters&#45;&gt;Trento.Hosts</title>
<path fill="none" stroke="black" d="M138.22,-483.99C173.8,-487.92 218.16,-492.83 254.06,-496.79"/>
<polygon fill="black" stroke="black" points="253.57,-500.26 263.9,-497.88 254.34,-493.3 253.57,-500.26"/>
</g>
<!-- Trento.Clusters&#45;&gt;Trento.Infrastructure -->
<g id="edge12" class="edge">
<title>Trento.Clusters&#45;&gt;Trento.Infrastructure</title>
<path fill="none" stroke="black" d="M106.48,-458.64C127.75,-446.93 156.81,-432.27 184,-423 196.88,-418.61 210.7,-414.84 224.41,-411.63"/>
<polygon fill="black" stroke="black" points="224.9,-415.11 233.89,-409.51 223.37,-408.28 224.9,-415.11"/>
</g>
<!-- Trento.Clusters&#45;&gt;Trento.Repo -->
<g id="edge13" class="edge">
<title>Trento.Clusters&#45;&gt;Trento.Repo</title>
<path fill="none" stroke="black" d="M138.22,-470.01C174.85,-465.96 220.79,-460.88 257.22,-456.86"/>
<polygon fill="black" stroke="black" points="257.14,-460.39 266.7,-455.81 256.37,-453.43 257.14,-460.39"/>
</g>
<!-- Trento.SapSystems -->
<g id="node10" class="node">
<title>Trento.SapSystems</title>
<polygon fill="none" stroke="black" points="398,-576 242.5,-576 242.5,-540 398,-540 398,-576"/>
<text text-anchor="middle" x="320.25" y="-553.33" font-family="Times,serif" font-size="14.00">Trento.SapSystems</text>
</g>
<!-- Trento.Clusters&#45;&gt;Trento.SapSystems -->
<g id="edge14" class="edge">
<title>Trento.Clusters&#45;&gt;Trento.SapSystems</title>
<path fill="none" stroke="black" d="M106.48,-495.36C127.75,-507.07 156.81,-521.73 184,-531 199.01,-536.12 215.3,-540.39 231.21,-543.92"/>
<polygon fill="black" stroke="black" points="230.15,-547.27 240.66,-545.93 231.61,-540.43 230.15,-547.27"/>
</g>
</g>
</svg>
