<?xml version="1.0" encoding="UTF-8" standalone="no"?>
<!DOCTYPE svg PUBLIC "-//W3C//DTD SVG 1.1//EN"
 "http://www.w3.org/Graphics/SVG/1.1/DTD/svg11.dtd">
<!-- Generated by graphviz version 9.0.0 (0)
 -->
<!-- Pages: 1 -->
<svg width="376pt" height="204pt"
 viewBox="0.00 0.00 376.25 204.25" xmlns="http://www.w3.org/2000/svg" xmlns:xlink="http://www.w3.org/1999/xlink">
<g id="graph0" class="graph" transform="scale(1 1) rotate(0) translate(4 200.25)">
<polygon fill="white" stroke="none" points="-4,4 -4,-200.25 372.25,-200.25 372.25,4 -4,4"/>
<text text-anchor="middle" x="184.12" y="-178.95" font-family="Times,serif" font-size="14.00">TrentoWeb boundary</text>
<!-- Endpoint -->
<g id="node1" class="node">
<title>Endpoint</title>
<polygon fill="none" stroke="black" points="84.62,-63 3.38,-63 3.38,-27 84.62,-27 84.62,-63"/>
<text text-anchor="middle" x="44" y="-40.33" font-family="Times,serif" font-size="14.00">Endpoint</text>
</g>
<!-- Router -->
<g id="node2" class="node">
<title>Router</title>
<polygon fill="none" stroke="black" points="188.75,-63 124,-63 124,-27 188.75,-27 188.75,-63"/>
<text text-anchor="middle" x="156.38" y="-40.33" font-family="Times,serif" font-size="14.00">Router</text>
</g>
<!-- Endpoint&#45;&gt;Router -->
<g id="edge1" class="edge">
<title>Endpoint&#45;&gt;Router</title>
<path fill="none" stroke="black" d="M84.85,-45C93.69,-45 103.11,-45 112.08,-45"/>
<polygon fill="black" stroke="black" points="112.03,-48.5 122.03,-45 112.03,-41.5 112.03,-48.5"/>
</g>
<!-- SessionController -->
<g id="node3" class="node">
<title>SessionController</title>
<polygon fill="none" stroke="black" points="368.25,-90 224.75,-90 224.75,-54 368.25,-54 368.25,-90"/>
<text text-anchor="middle" x="296.5" y="-67.33" font-family="Times,serif" font-size="14.00">SessionController</text>
</g>
<!-- Router&#45;&gt;SessionController -->
<g id="edge2" class="edge">
<title>Router&#45;&gt;SessionController</title>
<path fill="none" stroke="black" d="M189.06,-51.19C196.43,-52.63 204.61,-54.23 213.06,-55.89"/>
<polygon fill="black" stroke="black" points="212.32,-59.31 222.81,-57.79 213.66,-52.44 212.32,-59.31"/>
</g>
<!-- V1 -->
<g id="node5" class="node">
<title>V1</title>
<polygon fill="none" stroke="black" points="323.5,-36 269.5,-36 269.5,0 323.5,0 323.5,-36"/>
<text text-anchor="middle" x="296.5" y="-13.32" font-family="Times,serif" font-size="14.00">V1</text>
</g>
<!-- Router&#45;&gt;V1 -->
<g id="edge3" class="edge">
<title>Router&#45;&gt;V1</title>
<path fill="none" stroke="black" d="M189.06,-38.81C209.59,-34.79 236.41,-29.55 258,-25.33"/>
<polygon fill="black" stroke="black" points="258.43,-28.81 267.58,-23.46 257.09,-21.94 258.43,-28.81"/>
</g>
<!-- Telemetry -->
<g id="node4" class="node">
<title>Telemetry</title>
<polygon fill="none" stroke="black" points="88,-117 0,-117 0,-81 88,-81 88,-117"/>
<text text-anchor="middle" x="44" y="-94.33" font-family="Times,serif" font-size="14.00">Telemetry</text>
</g>
<!-- V2 -->
<g id="node6" class="node">
<title>V2</title>
<polygon fill="none" stroke="black" points="71,-171 17,-171 17,-135 71,-135 71,-171"/>
<text text-anchor="middle" x="44" y="-148.32" font-family="Times,serif" font-size="14.00">V2</text>
</g>
</g>
</svg>
