<svg width="32" height="32" viewBox="0 0 32 32" fill="none" xmlns="http://www.w3.org/2000/svg">
<g clip-path="url(#clip0_2920_7262)">
<path fill-rule="evenodd" clip-rule="evenodd" d="M6.27867 21.2733L12.572 17.744L12.6787 17.4373L12.572 17.2667H12.2667L11.2133 17.2027L7.616 17.1053L4.49733 16.976L1.476 16.8133L0.714667 16.652L0 15.712L0.0733333 15.2427L0.713333 14.8147L1.628 14.8947L3.65467 15.032L6.692 15.2427L8.89467 15.372L12.16 15.712H12.6787L12.752 15.5027L12.5733 15.372L12.436 15.2427L9.292 13.1147L5.88933 10.864L4.108 9.568L3.14267 8.91333L2.65733 8.29733L2.44667 6.95333L3.32133 5.99067L4.496 6.07067L4.796 6.152L5.98667 7.06667L8.53067 9.03467L11.852 11.4787L12.3387 11.884L12.532 11.7467L12.5573 11.6493L12.3387 11.284L10.532 8.02267L8.604 4.70267L7.74533 3.32667L7.51867 2.50133C7.4323 2.18434 7.38572 1.85783 7.38 1.52933L8.37733 0.178667L8.928 0L10.256 0.178667L10.816 0.664L11.6427 2.54933L12.9787 5.52133L15.052 9.56133L15.66 10.7587L15.984 11.868L16.1053 12.208H16.316V12.0133L16.4867 9.73867L16.8027 6.94533L17.1093 3.352L17.216 2.33867L17.7173 1.12533L18.7133 0.469333L19.492 0.842667L20.132 1.756L20.0427 2.348L19.6613 4.816L18.916 8.68667L18.4307 11.276H18.7133L19.0373 10.9533L20.3507 9.212L22.5533 6.46L23.5267 5.36667L24.66 4.16133L25.3893 3.58667H26.7667L27.78 5.092L27.3267 6.64667L25.908 8.44267L24.7333 9.96533L23.048 12.232L21.9947 14.0453L22.092 14.192L22.3427 14.1653L26.1507 13.3573L28.208 12.984L30.6627 12.564L31.7733 13.0813L31.8947 13.608L31.4573 14.684L28.832 15.332L25.7533 15.948L21.168 17.032L21.112 17.072L21.1773 17.1533L23.2427 17.348L24.1253 17.396H26.288L30.3147 17.696L31.368 18.392L32 19.2427L31.8947 19.8893L30.2747 20.716L28.088 20.1973L22.9827 18.984L21.2333 18.5453H20.9907V18.692L22.448 20.116L25.1227 22.5293L28.468 25.636L28.6373 26.4067L28.208 27.0133L27.7547 26.948L24.8147 24.7387L23.68 23.7427L21.112 21.5827H20.9413V21.8093L21.5333 22.6747L24.66 27.3693L24.8227 28.8093L24.596 29.28L23.7853 29.564L22.8947 29.4013L21.0627 26.8347L19.176 23.9453L17.652 21.3547L17.4653 21.4613L16.5667 31.1333L16.1453 31.6267L15.1733 32L14.364 31.3853L13.9347 30.3893L14.364 28.4213L14.8827 25.856L15.3027 23.816L15.684 21.2827L15.9107 20.44L15.8947 20.384L15.708 20.408L13.796 23.0307L10.8893 26.9573L8.588 29.4173L8.036 29.636L7.08 29.1427L7.16933 28.26L7.704 27.4747L10.888 23.4267L12.808 20.9173L14.048 19.4693L14.04 19.2587H13.9667L5.50933 24.7467L4.00267 24.9413L3.35333 24.3333L3.43467 23.3387L3.74267 23.0147L6.28667 21.2653L6.27867 21.2733Z" fill="black"/>
</g>
<defs>
<clipPath id="clip0_2920_7262">
<rect width="32" height="32" fill="white"/>
</clipPath>
</defs>
</svg>
