<svg width="24" height="24" viewBox="0 0 24 24" fill="none" xmlns="http://www.w3.org/2000/svg">
<g clip-path="url(#clip0_109_5238)">
<path d="M6.76328 10.3966C6.76328 10.6919 6.79521 10.9314 6.85108 11.107C6.91494 11.2826 6.99476 11.4742 7.10651 11.6817C7.14642 11.7456 7.16239 11.8094 7.16239 11.8653C7.16239 11.9451 7.11449 12.0249 7.01073 12.1048L6.50785 12.44C6.43601 12.4879 6.36417 12.5118 6.30031 12.5118C6.22049 12.5118 6.14067 12.4719 6.06085 12.4001C5.9491 12.2804 5.85331 12.1526 5.77349 12.0249C5.69367 11.8892 5.61385 11.7376 5.52605 11.554C4.90344 12.2883 4.12119 12.6555 3.1793 12.6555C2.5088 12.6555 1.97399 12.464 1.58287 12.0808C1.19174 11.6977 0.992188 11.1868 0.992188 10.5482C0.992188 9.86975 1.23165 9.31899 1.71856 8.90391C2.20547 8.48884 2.85203 8.28131 3.67419 8.28131C3.94558 8.28131 4.22496 8.30525 4.5203 8.34516C4.81564 8.38508 5.11896 8.44893 5.43824 8.52077V7.93808C5.43824 7.33143 5.31053 6.90838 5.06308 6.66093C4.80765 6.41349 4.37662 6.29375 3.76199 6.29375C3.48262 6.29375 3.19526 6.32568 2.89992 6.39752C2.60458 6.46936 2.31722 6.55716 2.03785 6.66891C1.91013 6.72479 1.81435 6.75672 1.75847 6.77268C1.7026 6.78865 1.66269 6.79663 1.63076 6.79663C1.51901 6.79663 1.46313 6.71681 1.46313 6.54918V6.15806C1.46313 6.03034 1.4791 5.93456 1.51901 5.87868C1.55892 5.82281 1.63076 5.76693 1.74251 5.71106C2.02188 5.56738 2.35713 5.44765 2.74826 5.35186C3.13938 5.24809 3.55446 5.2002 3.99347 5.2002C4.94335 5.2002 5.6378 5.41572 6.0848 5.84675C6.52382 6.27779 6.74731 6.93232 6.74731 7.81036V10.3966H6.76328ZM3.52253 11.6099C3.78594 11.6099 4.05733 11.562 4.34469 11.4662C4.63205 11.3704 4.88747 11.1948 5.10299 10.9553C5.23071 10.8037 5.32649 10.636 5.37439 10.4445C5.42228 10.2529 5.45421 10.0214 5.45421 9.75002V9.41477C5.22272 9.3589 4.97528 9.311 4.71985 9.27908C4.46442 9.24715 4.21697 9.23118 3.96953 9.23118C3.43472 9.23118 3.0436 9.33495 2.78019 9.55047C2.51678 9.76599 2.38906 10.0693 2.38906 10.4684C2.38906 10.8436 2.48485 11.123 2.6844 11.3145C2.87597 11.5141 3.15535 11.6099 3.52253 11.6099ZM9.93219 12.4719C9.78851 12.4719 9.69273 12.448 9.62887 12.3921C9.56501 12.3442 9.50914 12.2325 9.46124 12.0808L7.58544 5.91061C7.53755 5.75097 7.5136 5.6472 7.5136 5.59132C7.5136 5.46361 7.57746 5.39177 7.70517 5.39177H8.48742C8.63908 5.39177 8.74285 5.41572 8.79873 5.47159C8.86258 5.51948 8.91048 5.63123 8.95837 5.7829L10.2994 11.0671L11.5446 5.7829C11.5845 5.62325 11.6324 5.51948 11.6962 5.47159C11.7601 5.4237 11.8719 5.39177 12.0155 5.39177H12.6541C12.8058 5.39177 12.9095 5.41572 12.9734 5.47159C13.0372 5.51948 13.0931 5.63123 13.125 5.7829L14.3862 11.1309L15.7671 5.7829C15.815 5.62325 15.8709 5.51948 15.9268 5.47159C15.9906 5.4237 16.0944 5.39177 16.2381 5.39177H16.9804C17.1081 5.39177 17.18 5.45563 17.18 5.59132C17.18 5.63123 17.172 5.67115 17.164 5.71904C17.156 5.76693 17.1401 5.83079 17.1081 5.91859L15.1844 12.0888C15.1365 12.2484 15.0807 12.3522 15.0168 12.4001C14.953 12.448 14.8492 12.4799 14.7135 12.4799H14.027C13.8754 12.4799 13.7716 12.456 13.7077 12.4001C13.6439 12.3442 13.588 12.2405 13.5561 12.0808L12.3189 6.93232L11.0896 12.0728C11.0497 12.2325 11.0018 12.3362 10.9379 12.3921C10.8741 12.448 10.7623 12.4719 10.6187 12.4719H9.93219ZM20.1892 12.6875C19.7742 12.6875 19.3591 12.6396 18.96 12.5438C18.5609 12.448 18.2496 12.3442 18.0421 12.2245C17.9143 12.1526 17.8265 12.0728 17.7946 12.001C17.7627 11.9291 17.7467 11.8493 17.7467 11.7775V11.3704C17.7467 11.2028 17.8106 11.123 17.9303 11.123C17.9782 11.123 18.0261 11.1309 18.074 11.1469C18.1219 11.1629 18.1937 11.1948 18.2735 11.2267C18.5449 11.3465 18.8403 11.4422 19.1516 11.5061C19.4709 11.57 19.7822 11.6019 20.1014 11.6019C20.6043 11.6019 20.9954 11.5141 21.2668 11.3385C21.5382 11.1629 21.6819 10.9074 21.6819 10.5802C21.6819 10.3567 21.6101 10.1731 21.4664 10.0214C21.3227 9.86975 21.0513 9.73406 20.6602 9.60634L19.5028 9.24715C18.9201 9.06356 18.4891 8.79216 18.2256 8.43297C17.9622 8.08175 17.8265 7.69063 17.8265 7.27556C17.8265 6.94031 17.8984 6.64497 18.0421 6.38954C18.1857 6.13411 18.3773 5.91061 18.6168 5.735C18.8562 5.55141 19.1276 5.41572 19.4469 5.31993C19.7662 5.22415 20.1014 5.18423 20.4527 5.18423C20.6283 5.18423 20.8119 5.19222 20.9875 5.21616C21.1711 5.24011 21.3387 5.27204 21.5063 5.30397C21.6659 5.34388 21.8176 5.38379 21.9613 5.43168C22.105 5.47957 22.2167 5.52747 22.2965 5.57536C22.4083 5.63922 22.4881 5.70307 22.536 5.77491C22.5839 5.83877 22.6078 5.92657 22.6078 6.03832V6.41349C22.6078 6.58111 22.544 6.66891 22.4242 6.66891C22.3604 6.66891 22.2566 6.63699 22.1209 6.57313C21.6659 6.36559 21.1551 6.26182 20.5884 6.26182C20.1334 6.26182 19.7742 6.33366 19.5267 6.48532C19.2793 6.63699 19.1516 6.86847 19.1516 7.19574C19.1516 7.41924 19.2314 7.61081 19.391 7.76247C19.5507 7.91413 19.846 8.06579 20.2691 8.20149L21.4025 8.56068C21.9772 8.74427 22.3923 8.9997 22.6398 9.32697C22.8872 9.65424 23.0069 10.0294 23.0069 10.4445C23.0069 10.7877 22.9351 11.099 22.7994 11.3704C22.6557 11.6418 22.4642 11.8813 22.2167 12.0728C21.9693 12.2724 21.6739 12.4161 21.3307 12.5198C20.9715 12.6316 20.5963 12.6875 20.1892 12.6875Z" fill="#252F3E"/>
<path fill-rule="evenodd" clip-rule="evenodd" d="M21.698 16.5667C19.0719 18.5064 15.2564 19.5361 11.9758 19.5361C7.37806 19.5361 3.23532 17.8359 0.106324 15.0102C-0.141123 14.7867 0.0823771 14.4834 0.377717 14.659C3.76215 16.6226 7.93681 17.812 12.2551 17.812C15.1686 17.812 18.3695 17.2053 21.3149 15.9601C21.7539 15.7606 22.1291 16.2475 21.698 16.5667Z" fill="#FF9900"/>
<path fill-rule="evenodd" clip-rule="evenodd" d="M22.7919 15.3216C22.4567 14.8905 20.5729 15.114 19.7188 15.2178C19.4634 15.2497 19.4234 15.0262 19.6549 14.8586C21.1556 13.8049 23.6221 14.1083 23.9094 14.4595C24.1968 14.8187 23.8296 17.2852 22.4247 18.4665C22.2092 18.6501 22.0017 18.5543 22.0975 18.3149C22.4167 17.5246 23.1272 15.7446 22.7919 15.3216Z" fill="#FF9900"/>
</g>
<defs>
<clipPath id="clip0_109_5238">
<rect width="24" height="24" fill="white"/>
</clipPath>
</defs>
</svg>
