<svg width="24" height="24" viewBox="0 0 24 24" fill="none" xmlns="http://www.w3.org/2000/svg">
<g clip-path="url(#clip0_109_5254)">
<path d="M11.1614 20.6892C14.261 20.1416 16.8212 19.6885 16.8506 19.6822L16.904 19.6709L13.9777 16.1901C12.3681 14.2756 11.0513 12.7018 11.0513 12.6927C11.0513 12.6756 14.073 4.35436 14.09 4.32476C14.0957 4.31486 16.1521 7.86515 19.0748 12.9309C21.8111 17.6735 24.0671 21.5838 24.0881 21.6205L24.1262 21.6871L14.8259 21.6859L5.52564 21.6847L11.1614 20.6892ZM0 19.6277C0 19.6228 1.3789 17.2291 3.06421 14.3084L6.12843 8.9981L9.69942 6.00132C11.6635 4.3531 13.2757 3.00253 13.2822 3.00007C13.2886 2.99761 13.2628 3.06263 13.2247 3.14457C13.1867 3.22652 11.4418 6.96917 9.34715 11.4616L5.53873 19.6296L2.76936 19.6331C1.24621 19.635 0 19.6326 0 19.6277Z" fill="#0089D6"/>
</g>
<defs>
<clipPath id="clip0_109_5254">
<rect width="24" height="24" fill="white"/>
</clipPath>
</defs>
</svg>
