<svg width="193" height="198" viewBox="0 0 193 198" fill="none" xmlns="http://www.w3.org/2000/svg">
<ellipse cx="69.5" cy="6" rx="69.5" ry="6" transform="matrix(1 0 0 -1 30.0415 198)" fill="#E5E7EB"/>
<circle cx="96" cy="96" r="96" fill="#E5E7EB"/>
<path d="M96.124 0C75.3352 -2.47904e-07 55.1082 6.74826 38.4837 19.2303C21.8592 31.7123 9.73572 49.2535 3.93583 69.2169C-1.86406 89.1802 -1.02692 110.487 6.3214 129.934C13.6697 149.38 27.1321 165.916 44.6847 177.055C62.2372 188.195 82.9314 193.335 103.656 191.704C124.381 190.073 144.016 181.759 159.61 168.011C175.204 154.263 185.914 135.824 190.129 115.468C194.345 95.1107 191.839 73.9354 182.987 55.1252L96.124 96L96.124 0Z" fill="#9CA3AF"/>
<path d="M112.722 1.44575C129.776 4.43938 145.703 11.9896 158.816 23.2967C171.928 34.6038 181.739 49.2468 187.209 65.6749L96.124 96L112.722 1.44575Z" fill="#D1D5DB"/>
<circle cx="96.124" cy="96" r="48" fill="white"/>
</svg>
