<svg width="24" height="24" viewBox="0 0 24 24" fill="none" xmlns="http://www.w3.org/2000/svg">
<g clip-path="url(#clip0_109_5246)">
<path d="M15.9608 7.3266L18.0471 5.24038L18.1856 4.3623C14.3845 0.905018 8.34168 1.29751 4.91402 5.18008C3.96189 6.2581 3.25626 7.60272 2.87964 8.99177L3.62653 8.88598L7.79897 8.19833L8.12058 7.86931C9.97617 5.8307 13.115 5.5567 15.2573 7.29063L15.9608 7.3266Z" fill="#EA4335"/>
<path d="M21.0198 8.92937C20.5406 7.1637 19.5557 5.57576 18.1867 4.36127L15.2584 7.28959C16.4951 8.29991 17.1986 9.8212 17.169 11.4176V11.937C18.6078 11.937 19.7747 13.1039 19.7747 14.5427C19.7747 15.9815 18.6078 17.1198 17.169 17.1198H11.9503L11.4382 17.6763V20.8024L11.9503 21.2933H17.169C20.9119 21.3229 23.9704 18.3406 24 14.5977C24.018 12.3285 22.8987 10.201 21.0198 8.92937Z" fill="#4285F4"/>
<path d="M6.73804 21.2933H11.9504V17.1209H6.73804C6.36882 17.1209 6.0049 17.0405 5.66953 16.8871L4.93005 17.1135L2.82902 19.1997L2.646 19.9096C3.82452 20.7993 5.26224 21.2997 6.73804 21.2933Z" fill="#34A853"/>
<path d="M6.73802 7.75828C2.99404 7.7805 -0.0220944 10.8337 0.000121947 14.5776C0.012817 16.6681 0.989278 18.6358 2.64598 19.9106L5.66952 16.8871C4.3577 16.2946 3.77478 14.7511 4.36722 13.4393C4.95966 12.1275 6.50316 11.5446 7.81499 12.137C8.39261 12.3983 8.85598 12.8606 9.11729 13.4393L12.1408 10.4158C10.8544 8.73368 8.85492 7.75088 6.73802 7.75828Z" fill="#FBBC05"/>
</g>
<defs>
<clipPath id="clip0_109_5246">
<rect width="24" height="24" fill="white"/>
</clipPath>
</defs>
</svg>
