<svg width="24" height="25" viewBox="0 0 24 25" fill="none" xmlns="http://www.w3.org/2000/svg">
<path fill-rule="evenodd" clip-rule="evenodd" d="M5.29672 20.2496C5.23082 20.3064 5.14522 20.3369 5.05759 20.3369H0.387173C0.239418 20.3369 0.0954014 20.2588 0.0346011 20.124C-0.0357099 19.9687 0.00504576 19.7877 0.132081 19.6827L8.65499 12.5049C8.84487 12.3446 8.84554 12.0521 8.65601 11.8915L0.144986 4.66507C0.0417278 4.57709 -0.0183888 4.44259 0.00504817 4.3091C0.0369768 4.12534 0.194582 4 0.372568 4H4.86703C4.95331 4 5.03721 4.03057 5.10616 4.08695L14.3811 11.8891L14.465 11.9608C14.6077 12.0824 14.6114 12.3014 14.4731 12.4281L14.3814 12.512L5.29672 20.2496Z" fill="#A8CB3A"/>
<path fill-rule="evenodd" clip-rule="evenodd" d="M15.8132 10.8473C15.9619 10.974 16.181 10.974 16.3298 10.8477L23.7692 4.66507C23.8724 4.57709 23.9322 4.44259 23.9091 4.3091C23.8772 4.12534 23.7192 4 23.5416 4H19.0471C18.9608 4 18.8769 4.03057 18.808 4.08695L13.5877 8.34264C13.3988 8.5016 13.3981 8.79201 13.586 8.952L15.8132 10.8473Z" fill="#174489"/>
<path fill-rule="evenodd" clip-rule="evenodd" d="M15.7881 13.5504C15.9372 13.4237 16.156 13.4234 16.3051 13.5501L23.8552 19.7164C23.9585 19.804 24.0182 19.9388 23.9952 20.0723C23.9632 20.2557 23.8053 20.3814 23.6276 20.3814H19.1328C19.0469 20.3814 18.963 20.3509 18.894 20.2945L13.7063 15.9749C13.5175 15.816 13.5168 15.5256 13.7046 15.3656L15.7881 13.5504Z" fill="#174489"/>
</svg>
