<svg width="32" height="32" viewBox="0 0 32 32" fill="none" xmlns="http://www.w3.org/2000/svg">
<g clip-path="url(#clip0_2920_7260)">
<path fill-rule="evenodd" clip-rule="evenodd" d="M12.2733 11.544V8.53067C12.2733 8.27733 12.3693 8.08667 12.5907 7.96L18.648 4.472C19.4733 3.996 20.456 3.77467 21.4707 3.77467C25.276 3.77467 27.6867 6.724 27.6867 9.86267C27.6867 10.0853 27.6867 10.3387 27.6547 10.592L21.3747 6.91333C21.2041 6.80477 21.0062 6.7471 20.804 6.7471C20.6018 6.7471 20.4039 6.80477 20.2333 6.91333L12.2733 11.544ZM26.4187 23.2773V16.08C26.4187 15.636 26.228 15.32 25.8467 15.0973L17.8867 10.4667L20.4867 8.976C20.5809 8.914 20.6912 8.88097 20.804 8.88097C20.9168 8.88097 21.0271 8.914 21.1213 8.976L27.1787 12.4653C28.924 13.4787 30.0973 15.636 30.0973 17.7293C30.0973 20.14 28.6707 22.36 26.4173 23.28L26.4187 23.2773ZM10.4027 16.9373L7.80267 15.4147C7.58 15.288 7.484 15.0973 7.484 14.844V7.86533C7.484 4.472 10.084 1.90267 13.6053 1.90267C14.9387 1.90267 16.1747 2.34667 17.2213 3.14L10.9733 6.756C10.5933 6.97733 10.4027 7.29467 10.4027 7.73867V16.936V16.9373ZM16 20.1707L12.2733 18.0773V13.6373L16 11.544L19.7267 13.6373V18.0773L16 20.1707ZM18.3947 29.8107C17.0613 29.8107 15.8253 29.368 14.7787 28.5747L21.0267 24.9587C21.4067 24.7373 21.5973 24.42 21.5973 23.976V14.7787L24.2293 16.3013C24.452 16.428 24.5467 16.6187 24.5467 16.872V23.8493C24.5467 27.2427 21.9147 29.8107 18.3947 29.8107ZM10.8787 22.74L4.82 19.2507C3.076 18.236 1.90267 16.08 1.90267 13.9867C1.89856 12.7972 2.24948 11.6336 2.91053 10.6448C3.57157 9.65595 4.51266 8.88688 5.61333 8.436V15.6667C5.61333 16.1107 5.804 16.428 6.184 16.6507L14.1133 21.2493L11.5133 22.74C11.4192 22.8022 11.3088 22.8353 11.196 22.8353C11.0832 22.8353 10.9728 22.8022 10.8787 22.74ZM10.5293 27.94C6.94533 27.94 4.31333 25.2453 4.31333 21.9147C4.31333 21.6613 4.34533 21.408 4.376 21.1547L10.624 24.768C11.0053 24.9907 11.3853 24.9907 11.7653 24.768L19.7253 20.1707V23.184C19.7253 23.4373 19.632 23.628 19.4093 23.7547L13.352 27.2427C12.5267 27.7187 11.544 27.94 10.5293 27.94ZM18.3947 31.7133C20.2221 31.7135 21.9935 31.0824 23.4092 29.9269C24.8249 28.7714 25.798 27.1624 26.164 25.372C29.716 24.452 32 21.12 32 17.728C32 15.508 31.0493 13.352 29.336 11.7973C29.4947 11.1307 29.5893 10.4653 29.5893 9.8C29.5893 5.26533 25.9107 1.87067 21.6613 1.87067C20.8053 1.87067 19.9813 1.99733 19.1547 2.284C17.6747 0.827212 15.6833 0.00742481 13.6067 8.56554e-09C11.7791 -8.4904e-05 10.0075 0.631154 8.59181 1.78692C7.17607 2.94269 6.20304 4.55203 5.83733 6.34267C2.284 7.26267 0 10.5933 0 13.9867C0 16.208 0.950667 18.364 2.664 19.9173C2.50533 20.584 2.41067 21.2507 2.41067 21.916C2.41067 26.4507 6.08933 29.844 10.3387 29.844C11.1947 29.844 12.0187 29.7173 12.8453 29.432C14.3255 30.8894 16.3175 31.7092 18.3947 31.716V31.7133Z" fill="black"/>
</g>
<defs>
<clipPath id="clip0_2920_7260">
<rect width="32" height="32" fill="white"/>
</clipPath>
</defs>
</svg>
