<svg width="24" height="25" viewBox="0 0 24 25" fill="none" xmlns="http://www.w3.org/2000/svg">
<path d="M23.4241 22.4498H20.7728C20.5686 22.4498 20.402 22.2838 20.402 22.0792V20.7396H22.9608C23.1806 20.7396 23.3592 20.5615 23.3592 20.3414C23.3592 20.1214 23.1806 19.9432 22.9608 19.9432H20.402V18.6252C20.402 18.4206 20.5686 18.254 20.7728 18.254H23.4241C23.6549 18.254 23.8423 18.0672 23.8423 17.8364C23.8423 17.6056 23.6549 17.4182 23.4241 17.4182H20.7728C20.108 17.4182 19.5664 17.9596 19.5664 18.6252V22.0792C19.5664 22.7444 20.108 23.2857 20.7728 23.2857H23.4241C23.6549 23.2857 23.8423 23.0988 23.8423 22.868C23.8423 22.637 23.6549 22.4498 23.4241 22.4498ZM15.628 19.954C15.0676 19.8534 14.6778 19.7343 14.4596 19.5957C14.2413 19.457 14.132 19.2696 14.132 19.0336C14.132 18.7801 14.244 18.572 14.4684 18.4097C14.6927 18.2475 15.0082 18.1663 15.4158 18.1663C15.8286 18.1663 16.1592 18.2458 16.4072 18.4054C16.5404 18.491 16.662 18.6052 16.7715 18.7476C16.9331 18.9571 17.2378 18.9847 17.4344 18.8079C17.6194 18.6408 17.6356 18.3543 17.469 18.1687C17.2681 17.944 17.0393 17.766 16.7831 17.6351C16.4025 17.4405 15.9436 17.3431 15.407 17.3431C14.9464 17.3431 14.5437 17.4229 14.1988 17.5821C13.8536 17.7412 13.589 17.9569 13.4065 18.2282C13.2233 18.4994 13.1319 18.8006 13.1319 19.131C13.1319 19.4439 13.2039 19.7095 13.349 19.9276C13.4932 20.146 13.7251 20.3289 14.0437 20.4764C14.3622 20.624 14.7899 20.7478 15.3272 20.8482C15.8642 20.9485 16.2401 21.0635 16.4555 21.1932C16.671 21.3233 16.7788 21.4942 16.7788 21.7064C16.7788 21.9722 16.6593 22.1774 16.4199 22.3217C16.1815 22.4664 15.8523 22.5386 15.4334 22.5386C14.9908 22.5386 14.6205 22.4561 14.3225 22.2908C14.1523 22.1963 13.9999 22.0712 13.8648 21.9153C13.695 21.7181 13.3907 21.7136 13.2069 21.8975L13.2051 21.8992C13.0369 22.0673 13.024 22.3395 13.1828 22.5163C13.6878 23.0802 14.4412 23.3616 15.442 23.3616C15.9024 23.3616 16.308 23.2924 16.6593 23.1537C17.0104 23.0152 17.283 22.8161 17.4778 22.5564C17.6728 22.2967 17.77 21.9957 17.77 21.6534C17.77 21.3348 17.6992 21.068 17.5576 20.8525C17.4158 20.6373 17.1905 20.4572 16.8805 20.3127C16.5709 20.1679 16.1531 20.0486 15.628 19.954ZM2.55716 19.9559C1.99662 19.855 1.60702 19.7363 1.38855 19.5976C1.17028 19.4586 1.06115 19.2714 1.06115 19.0351C1.06115 18.7817 1.17341 18.5736 1.39755 18.4112C1.62188 18.2493 1.93736 18.1679 2.34476 18.1679C2.75744 18.1679 3.08797 18.2475 3.33597 18.4069C3.46956 18.4926 3.59101 18.6068 3.70054 18.7496C3.8619 18.9589 4.16681 18.9862 4.36357 18.8096C4.54859 18.6422 4.56463 18.3561 4.39799 18.1703C4.19713 17.9457 3.9681 17.7679 3.71208 17.6367C3.33148 17.4421 2.87244 17.3449 2.33576 17.3449C1.87536 17.3449 1.47285 17.4245 1.12765 17.5837C0.782443 17.7431 0.51821 17.9586 0.33534 18.2297C0.15247 18.5014 0.061133 18.8022 0.061133 19.1327C0.061133 19.4455 0.133107 19.7113 0.277839 19.9291C0.422375 20.1478 0.65414 20.3307 0.972745 20.4781C1.29135 20.6256 1.71909 20.7494 2.25596 20.8499C2.79304 20.9503 3.16914 21.0653 3.38467 21.1951C3.59982 21.3246 3.70778 21.496 3.70778 21.7082C3.70778 21.9738 3.58808 22.1789 3.34927 22.3235C3.11027 22.4682 2.7813 22.5404 2.36256 22.5404C1.91976 22.5404 1.54952 22.4578 1.25165 22.2924C1.08129 22.1979 0.928934 22.0727 0.794178 21.9168C0.624412 21.7199 0.319498 21.7152 0.13565 21.8992L0.134085 21.901C-0.0341161 22.0688 -0.0468289 22.3413 0.111593 22.5181C0.616784 23.0817 1.36997 23.3634 2.37116 23.3634C2.83137 23.3634 3.23701 23.2939 3.58808 23.1553C3.93935 23.0168 4.21199 22.8175 4.40679 22.558C4.60179 22.2986 4.69899 21.9972 4.69899 21.655C4.69899 21.3366 4.62819 21.0696 4.48639 20.8542C4.34479 20.6389 4.11948 20.459 3.80928 20.3144C3.49968 20.1695 3.0823 20.0502 2.55716 19.9559ZM11.2745 17.8211V21.034C11.2745 21.8011 11.0711 22.3808 10.6641 22.7733C10.2567 23.1656 9.66386 23.3616 8.88505 23.3616C8.10605 23.3616 7.51284 23.1656 7.10583 22.7733C6.69883 22.3808 6.49522 21.8011 6.49522 21.034V17.8211C6.49522 17.5571 6.70919 17.3431 6.97303 17.3431C7.23668 17.3431 7.45123 17.5571 7.45123 17.8211V20.919C7.45123 21.4737 7.56761 21.8822 7.80074 22.1447C8.03388 22.4072 8.39492 22.5386 8.88505 22.5386C9.37479 22.5386 9.73603 22.4072 9.96917 22.1447C10.2023 21.8822 10.3187 21.4737 10.3187 20.919V17.8211C10.3187 17.5571 10.5328 17.3431 10.7969 17.3431C11.0605 17.3431 11.2745 17.5571 11.2745 17.8211Z" fill="#0C322C"/>
<path d="M22.6695 6.77242C22.541 6.85769 22.3687 6.85789 22.2402 6.77242C22.0292 6.63238 22.0091 6.33998 22.1792 6.17022C22.3302 6.01375 22.5794 6.01375 22.7306 6.17002C22.9003 6.33979 22.8798 6.63238 22.6695 6.77242ZM23.2837 5.91948C23.5285 6.96174 22.5919 7.89897 21.5496 7.6541C21.0192 7.52952 20.5975 7.10843 20.4735 6.57781C20.2289 5.53614 21.1651 4.59969 22.2072 4.84397C22.7374 4.96777 23.1587 5.38886 23.2837 5.91948ZM16.2658 11.5247C16.3855 11.696 16.484 11.8613 16.54 12.0266C16.5791 12.1443 16.6292 12.299 16.7453 12.3612C16.752 12.3647 16.7575 12.3677 16.7643 12.3698C16.9769 12.4473 17.524 12.4341 17.524 12.4341H18.5296C18.6155 12.4355 19.3708 12.4334 19.3521 12.3487C19.2615 11.9446 18.7937 11.8726 18.4385 11.6612C18.1101 11.4656 17.7997 11.244 17.6581 10.8628C17.585 10.6661 17.6284 10.2121 17.7551 10.0467C17.8476 9.92736 17.983 9.84796 18.1299 9.81588C18.2916 9.78126 18.4598 9.81119 18.6224 9.82762C18.822 9.84796 19.0198 9.88414 19.2187 9.90898C19.6038 9.95905 19.9918 9.97919 20.3797 9.96863C21.02 9.95083 21.6617 9.84874 22.2686 9.64201C22.692 9.49962 23.1094 9.30737 23.4697 9.04C23.8792 8.73548 23.772 8.76423 23.3568 8.80667C22.8597 8.85772 22.3578 8.86476 21.8594 8.83542C21.3941 8.80843 20.9355 8.75367 20.5144 8.53736C20.1827 8.36642 19.8981 8.19509 19.6359 7.93007C19.5965 7.89017 19.5719 7.77321 19.6439 7.6987C19.7135 7.62614 19.8616 7.66838 19.9071 7.70672C20.3656 8.09006 21.0488 8.40534 21.7568 8.43976C22.1391 8.45873 22.5119 8.46616 22.8949 8.44895C23.0859 8.44035 23.3754 8.44172 23.5667 8.43976C23.666 8.43859 23.9361 8.46695 23.9866 8.36211C24.0017 8.33141 24.0005 8.29601 23.9993 8.26178C23.943 6.73056 23.8297 5.00278 22.2271 4.27071C21.0313 3.72386 19.2384 2.8768 18.4813 2.52533C18.3053 2.44221 18.0999 2.57403 18.0999 2.76942C18.0999 3.28107 18.1264 4.01607 18.1264 4.68496C17.7637 4.31531 17.1527 4.08237 16.6871 3.8686C16.1586 3.62588 15.6123 3.42071 15.0575 3.24762C13.9387 2.90124 12.7817 2.68806 11.6179 2.57208C10.2985 2.44065 8.95645 2.50362 7.65602 2.77196C5.51595 3.21594 3.41226 4.24549 1.81513 5.7505C0.834674 6.67443 0.0654468 7.98718 0.0132262 9.31988C-0.0608997 11.2059 0.46737 12.219 1.43883 13.2628C2.98765 14.9265 6.32097 15.1592 7.67088 13.1866C8.27778 12.2982 8.41019 11.0936 7.96915 10.1124C7.52869 9.13115 6.51538 8.42196 5.44085 8.38597C4.60688 8.35859 3.71874 8.78242 3.39935 9.55341C3.15546 10.1419 3.29432 10.8693 3.7381 11.3266C3.911 11.5051 4.14511 11.6506 4.40132 11.5935C4.55173 11.5603 4.67788 11.4468 4.70076 11.2939C4.7344 11.0682 4.53667 10.9219 4.41541 10.7486C4.19616 10.4359 4.24055 9.96687 4.51515 9.70107C4.74672 9.47674 5.08978 9.41044 5.41229 9.41102C5.71232 9.41161 6.01938 9.46559 6.27853 9.61697C6.64251 9.83094 6.88464 10.2231 6.96776 10.6379C7.21791 11.8765 6.21105 12.883 4.84549 12.9622C4.14707 13.0037 3.43593 12.8198 2.89064 12.381C1.50983 11.2702 1.17147 8.99971 2.75021 7.78749C4.24818 6.63707 6.13986 6.93358 7.25449 7.53147C8.14732 8.00967 8.8125 8.7924 9.31652 9.65765C9.56921 10.0926 9.78474 10.5472 9.98482 11.0093C10.1773 11.4533 10.3568 11.9008 10.7419 12.2262C10.997 12.442 11.3113 12.4341 11.6453 12.4341H13.5515C13.81 12.4341 13.7474 12.2616 13.6352 12.1472C13.3825 11.8891 13.0195 11.8306 12.6831 11.7381C11.9152 11.5268 11.9935 10.51 12.2059 10.51C12.8929 10.51 12.9147 10.5303 13.5163 10.5223C14.385 10.5106 14.6473 10.4601 15.3262 10.7115C15.6896 10.8458 16.0385 11.2008 16.2658 11.5247Z" fill="#30BA78"/>
</svg>
