<svg width="144" height="144" viewBox="0 0 144 144" fill="none" xmlns="http://www.w3.org/2000/svg">
<path fill-rule="evenodd" clip-rule="evenodd" d="M25.9233 33.2912V15.3274H31.4027V20.1393H37.471V24.3088H43.2449V19.8186H49.0187V15.3274H54.7925V19.8186H60.5664V24.3088H66.3402V19.8186H72.4076V15.3274H77.8879V33.2912H25.9233ZM72.0356 90.1249H72.0316V81.0229H60.6096V90.1249H52.0192V81.0229H40.5972V125.573H31.7756V41.0413H72.0356V90.1249ZM47.4335 58.6694V68.852H56.3777V58.6694C56.3777 56.2006 54.3734 54.1972 51.9056 54.1972C49.4368 54.1972 47.4335 56.2006 47.4335 58.6694Z" fill="#6DC99D"/>
<path fill-rule="evenodd" clip-rule="evenodd" d="M91.9956 125.572V81.0227H101.422V90.1253H109.733V81.0227H117.899V125.572H91.9956ZM102.722 100.594V109.695H108.433V100.594H102.722Z" fill="#6DC99D"/>
<path fill-rule="evenodd" clip-rule="evenodd" d="M73.4715 100.594H79.1826V109.695H73.4715V100.594ZM53.4583 100.506H59.1694V109.608H53.4583V100.506ZM61.3078 117.262C61.3078 114.968 63.1697 113.106 65.4632 113.106C67.7566 113.106 69.6186 114.968 69.6186 117.262V125.572H61.3078V117.262ZM80.6226 81.0227V90.1253H72.0315V81.0227H80.6226ZM60.6094 81.0227V90.1253H52.0183V81.0227H60.6094Z" fill="#6DC99D"/>
</svg>
