<svg width="240" height="168" viewBox="0 0 240 168" fill="none" xmlns="http://www.w3.org/2000/svg">
<g clip-path="url(#clip0_866_2059)">
<path fill-rule="evenodd" clip-rule="evenodd" d="M17.5502 124.475V166.276C17.5502 166.787 17.1353 167.203 16.6234 167.203H12.4188C11.9069 167.203 11.4916 166.787 11.4916 166.276V124.475H1.27217C0.75982 124.475 0.344971 124.06 0.344971 123.548V119.539C0.344971 119.028 0.75982 118.613 1.27217 118.613H27.77C28.2819 118.613 28.6972 119.028 28.6972 119.539V123.548C28.6972 124.06 28.2819 124.475 27.77 124.475H17.5502Z" fill="#6D8480"/>
<path fill-rule="evenodd" clip-rule="evenodd" d="M64.3141 166.774L51.9089 147.255H47.5763V166.276C47.5763 166.787 47.161 167.203 46.649 167.203H42.4445C41.9326 167.203 41.5177 166.787 41.5177 166.276V119.539C41.5177 119.028 41.9326 118.613 42.4445 118.613H57.2741C58.9909 118.613 60.6009 118.936 62.1056 119.583C63.6068 120.23 64.9196 121.113 66.0453 122.241C67.1718 123.364 68.0584 124.685 68.7036 126.197C69.3497 127.714 69.6741 129.327 69.6741 131.045V134.822C69.6741 136.54 69.3497 138.153 68.7036 139.67C68.0584 141.183 67.1718 142.503 66.0453 143.627C64.9196 144.755 63.6068 145.642 62.1056 146.285C61.0848 146.722 60.016 147.015 58.8982 147.155L70.7355 165.782C70.9169 166.066 70.9283 166.424 70.7657 166.722C70.6026 167.019 70.2914 167.203 69.953 167.203H65.0966C64.7793 167.203 64.4842 167.041 64.3141 166.774ZM63.6156 131.045C63.6156 130.132 63.4468 129.284 63.1054 128.497C62.7605 127.701 62.2918 127.002 61.6982 126.398C61.1076 125.799 60.4173 125.327 59.6269 124.986C58.8392 124.641 57.9898 124.475 57.0787 124.475H47.5763V141.393H57.0787C57.9898 141.393 58.8392 141.227 59.6269 140.886C60.4173 140.54 61.1076 140.068 61.6982 139.469C62.2918 138.866 62.7605 138.167 63.1054 137.371C63.4468 136.584 63.6156 135.736 63.6156 134.822V131.045Z" fill="#6D8480"/>
<path fill-rule="evenodd" clip-rule="evenodd" d="M85.7212 166.276V119.539C85.7212 119.028 86.1361 118.613 86.6484 118.613H112.951C113.463 118.613 113.878 119.028 113.878 119.539V123.548C113.878 124.06 113.463 124.475 112.951 124.475H91.7798V139.994H108.746C109.258 139.994 109.673 140.409 109.673 140.921V144.929C109.673 145.441 109.258 145.856 108.746 145.856H91.7798V161.34H112.951C113.463 161.34 113.878 161.756 113.878 162.267V166.276C113.878 166.787 113.463 167.203 112.951 167.203H86.6484C86.1361 167.203 85.7212 166.787 85.7212 166.276Z" fill="#6D8480"/>
<path fill-rule="evenodd" clip-rule="evenodd" d="M150.817 150.853V119.539C150.817 119.028 151.233 118.613 151.744 118.613H155.95C156.461 118.613 156.876 119.028 156.876 119.539V166.276C156.876 166.787 156.461 167.203 155.95 167.203H153.733C153.401 167.203 153.091 167.028 152.929 166.739L134.778 135.05V166.276C134.778 166.787 134.363 167.203 133.851 167.203H129.646C129.134 167.203 128.719 166.787 128.719 166.276V119.539C128.719 119.028 129.134 118.613 129.646 118.613H131.832C132.164 118.613 132.47 118.792 132.636 119.076L150.817 150.853Z" fill="#6D8480"/>
<path fill-rule="evenodd" clip-rule="evenodd" d="M187.587 124.475V166.276C187.587 166.787 187.171 167.203 186.66 167.203H182.454C181.943 167.203 181.528 166.787 181.528 166.276V124.475H171.307C170.795 124.475 170.38 124.06 170.38 123.548V119.539C170.38 119.028 170.795 118.613 171.307 118.613H197.807C198.319 118.613 198.734 119.028 198.734 119.539V123.548C198.734 124.06 198.319 124.475 197.807 124.475H187.587Z" fill="#6D8480"/>
<path fill-rule="evenodd" clip-rule="evenodd" d="M239.709 155.456C239.709 157.174 239.385 158.783 238.738 160.287C238.091 161.791 237.208 163.102 236.081 164.226C234.957 165.353 233.641 166.241 232.142 166.883C230.638 167.53 229.025 167.854 227.311 167.854H223.984C222.271 167.854 220.658 167.53 219.141 166.883C217.628 166.241 216.308 165.353 215.18 164.226C214.057 163.102 213.169 161.791 212.526 160.287C211.879 158.783 211.552 157.174 211.552 155.456V130.359C211.552 128.645 211.879 127.032 212.526 125.528C213.169 124.029 214.057 122.713 215.18 121.59C216.308 120.462 217.628 119.574 219.141 118.932C220.658 118.285 222.271 117.961 223.984 117.961H227.311C229.025 117.961 230.638 118.285 232.142 118.932C233.641 119.579 234.957 120.462 236.081 121.59C237.208 122.713 238.091 124.029 238.738 125.528C239.385 127.032 239.709 128.645 239.709 130.359V155.456ZM233.65 130.359C233.65 129.45 233.484 128.597 233.143 127.81C232.797 127.019 232.33 126.328 231.74 125.734C231.149 125.144 230.454 124.676 229.663 124.331C228.876 123.99 228.024 123.823 227.114 123.823H224.181C223.272 123.823 222.419 123.99 221.632 124.331C220.837 124.676 220.137 125.148 219.534 125.738C218.935 126.333 218.463 127.023 218.122 127.81C217.781 128.597 217.611 129.45 217.611 130.359V155.456C217.611 156.365 217.781 157.218 218.122 158.005C218.467 158.796 218.94 159.495 219.538 160.099C220.142 160.698 220.841 161.17 221.632 161.515C222.419 161.856 223.272 162.027 224.181 162.027H227.114C228.024 162.027 228.876 161.856 229.663 161.515C230.454 161.174 231.145 160.702 231.735 160.103C232.325 159.5 232.797 158.8 233.143 158.005C233.484 157.218 233.65 156.365 233.65 155.456V130.359Z" fill="#6D8480"/>
<path fill-rule="evenodd" clip-rule="evenodd" d="M80.1045 14.9797V0.200684H84.6124V4.15944H89.6048V7.58976H94.355V3.89564H99.1052V0.200684H103.855V3.89564H108.606V7.58976H113.356V3.89564H118.347V0.200684H122.856V14.9797H80.1045ZM108.641 61.7372H101.574V54.2489H92.1768V90.9007H84.9192V21.3557H118.041V61.7372H118.038V54.2489H108.641V61.7372ZM97.8011 35.8585V44.2358H105.16V35.8585C105.16 33.8274 103.511 32.1792 101.48 32.1792C99.4492 32.1792 97.8011 33.8274 97.8011 35.8585Z" fill="#6DC99D"/>
<path fill-rule="evenodd" clip-rule="evenodd" d="M134.463 90.9002V54.2488H142.218V61.7376H149.055V54.2488H155.773V90.9002H134.463ZM143.287 70.35V77.838H147.986V70.35H143.287Z" fill="#6DC99D"/>
<path fill-rule="evenodd" clip-rule="evenodd" d="M119.223 70.35H123.921V77.838H119.223V70.35ZM102.758 70.2779H107.456V77.7659H102.758V70.2779ZM109.216 84.0628C109.216 82.176 110.747 80.6441 112.634 80.6441C114.521 80.6441 116.053 82.176 116.053 84.0628V90.9002H109.216V84.0628ZM125.106 54.2488V61.7376H118.038V54.2488H125.106ZM108.641 54.2488V61.7376H101.573V54.2488H108.641Z" fill="#6DC99D"/>
</g>
<defs>
<clipPath id="clip0_866_2059">
<rect width="240" height="167.869" fill="white"/>
</clipPath>
</defs>
</svg>
