<svg width="24" height="24" viewBox="0 0 24 24" fill="none" xmlns="http://www.w3.org/2000/svg">
<g clip-path="url(#clip0_1504_88)">
<rect width="24" height="24" rx="3" fill="#717074"/>
<path d="M4.28972 9.06686C4.06539 8.50604 3.42979 8.28171 2.86897 8.50604C2.30814 8.73037 2.08382 9.40335 2.38292 9.92679L4.77576 15.1237C5.14965 15.9463 5.56092 16.3949 6.30868 16.3949C7.09383 16.3949 7.43033 15.9089 7.8416 15.1237C7.8416 15.1237 9.93533 10.5624 9.97272 10.525C10.0101 10.4876 10.0475 10.3381 10.2718 10.3381C10.4588 10.3381 10.5709 10.4876 10.5709 10.6745V15.0863C10.5709 15.7593 10.9448 16.3575 11.6552 16.3575C12.403 16.3575 12.7768 15.7967 12.7768 15.0863V11.4971C12.7768 10.7867 13.3003 10.3381 13.9359 10.3381C14.6089 10.3381 15.0575 10.8241 15.0575 11.4971V15.1237C15.0575 15.7967 15.4314 16.3949 16.1418 16.3949C16.8895 16.3949 17.2634 15.8341 17.2634 15.1237V11.4971C17.2634 10.7867 17.7869 10.3381 18.4225 10.3381C19.0954 10.3381 19.5441 10.8241 19.5441 11.4971V15.1237C19.5441 15.7967 19.918 16.3949 20.6284 16.3949C21.3761 16.3949 21.75 15.8341 21.75 15.1237V11.011C21.75 9.47813 20.5536 8.43126 19.0581 8.43126C17.5625 8.43126 16.6652 9.44074 16.6652 9.44074C16.1418 8.80514 15.5062 8.43126 14.3471 8.43126C13.1507 8.43126 12.0665 9.44074 12.0665 9.44074C11.5804 8.80514 10.7205 8.43126 10.0849 8.43126C9.03802 8.43126 8.17809 8.91731 7.65465 10.0763L6.12174 13.6656L4.28972 9.06686Z" fill="white"/>
</g>
<defs>
<clipPath id="clip0_1504_88">
<rect width="24" height="24" fill="white"/>
</clipPath>
</defs>
</svg>
